<svg>
  <symbol id="by-i-arrow-down" viewBox="0 0 12 7" version="1.1" xmlns="http://www.w3.org/2000/svg" xmlns:xlink="http://www.w3.org/1999/xlink">
    <g id="Icons" stroke="none" stroke-width="1" fill="none" fill-rule="evenodd">
      <g id="Rounded" transform="translate(-616.000000, -2467.000000)">
        <g id="Hardware" transform="translate(100.000000, 2404.000000)">
          <g id="-Round-/-Hardware-/-keyboard_arrow_down" transform="translate(510.000000, 54.000000)">
            <g>
              <rect id="Rectangle-Copy-103" x="0" y="0" width="24" height="24"></rect>
              <path d="M8.12,9.29 L12,13.17 L15.88,9.29 C16.27,8.9 16.9,8.9 17.29,9.29 C17.68,9.68 17.68,10.31 17.29,10.7 L12.7,15.29 C12.31,15.68 11.68,15.68 11.29,15.29 L6.7,10.7 C6.31,10.31 6.31,9.68 6.7,9.29 C7.09,8.91 7.73,8.9 8.12,9.29 Z" id="🔹-Icon-Color" fill="currentColor"></path>
            </g>
          </g>
        </g>
      </g>
    </g>
  </symbol>

  <symbol id="by-i-close" version="1.1" xmlns="http://www.w3.org/2000/svg" xmlns:xlink="http://www.w3.org/1999/xlink" x="0px" y="0px"
	 viewBox="0 0 60.963 60.842" style="enable-background:new 0 0 60.963 60.842;" xml:space="preserve">
    <path style="fill:currentColor;" d="M59.595,52.861L37.094,30.359L59.473,7.98c1.825-1.826,1.825-4.786,0-6.611
    c-1.826-1.825-4.785-1.825-6.611,0L30.483,23.748L8.105,1.369c-1.826-1.825-4.785-1.825-6.611,0c-1.826,1.826-1.826,4.786,0,6.611
    l22.378,22.379L1.369,52.861c-1.826,1.826-1.826,4.785,0,6.611c0.913,0.913,2.109,1.369,3.306,1.369s2.393-0.456,3.306-1.369
    l22.502-22.502l22.501,22.502c0.913,0.913,2.109,1.369,3.306,1.369s2.393-0.456,3.306-1.369
    C61.42,57.647,61.42,54.687,59.595,52.861z"/>
  </symbol>
</svg>